<svg class="logo" width="100%" height="100%" viewBox="0 0 448 512" xmlns="http://www.w3.org/2000/svg" xmlns:svg="http://www.w3.org/2000/svg">
 <g>
  <path id="RegTemplate" stroke-miterlimit="4" stroke-width="1.12343"
        d="M 125.00,3.21
           C 142.58,3.00 184.96,2.07 200.00,4.44
             229.53,9.09 265.81,31.41 285.91,53.00
             291.89,59.42 299.79,69.40 304.13,77.00
             304.13,77.00 327.42,135.00 327.42,135.00
             327.42,135.00 380.31,279.00 380.31,279.00
             380.31,279.00 426.00,408.00 426.00,408.00
             426.00,408.00 438.00,443.00 438.00,443.00
             440.33,449.99 443.26,457.56 442.96,465.00
             442.09,486.59 424.22,504.26 404.00,509.10
             398.74,510.36 391.52,510.06 386.00,510.00
             364.49,509.74 351.78,492.18 341.00,476.00
             337.21,470.31 330.08,456.85 324.00,454.60
             322.07,453.89 319.08,454.00 317.00,454.00
             317.00,454.00 285.00,454.00 285.00,454.00
             285.00,454.00 268.00,453.00 268.00,453.00
             268.00,453.00 49.00,453.00 49.00,453.00
             36.24,452.85 18.72,446.49 14.65,433.00
             13.89,430.50 14.00,427.60 14.00,425.00
             14.00,425.00 14.00,109.00 14.00,109.00
             14.00,109.00 14.00,44.00 14.00,44.00
             14.00,33.88 11.96,23.15 19.33,15.17
             21.33,13.01 24.54,10.70 27.00,9.03
             38.20,1.44 42.90,5.14 55.00,3.21
             55.00,3.21 125.00,3.21 125.00,3.21 Z
           M 39.00,12.53
           C 30.25,14.61 22.16,21.66 22.00,31.00
             22.00,31.00 22.00,95.00 22.00,95.00
             22.00,95.00 22.00,354.00 22.00,354.00
             22.00,354.00 22.00,410.00 22.00,410.00
             22.00,416.70 21.00,428.44 24.72,433.96
             31.02,443.28 43.71,444.98 54.00,445.00
             54.00,445.00 246.00,445.00 246.00,445.00
             246.00,445.00 261.00,446.00 261.00,446.00
             261.00,446.00 325.00,446.00 325.00,446.00
             327.24,446.00 330.68,445.78 332.59,447.02
             334.47,448.25 336.07,451.98 337.18,454.00
             337.18,454.00 345.05,467.00 345.05,467.00
             355.10,482.84 367.01,501.74 388.00,502.00
             407.80,502.24 423.90,495.52 431.79,476.00
             433.47,471.87 435.18,467.54 434.81,463.00
             434.42,458.19 430.06,446.19 428.33,441.00
             428.33,441.00 414.34,400.00 414.34,400.00
             414.34,400.00 368.31,270.00 368.31,270.00
             368.31,270.00 320.42,140.00 320.42,140.00
             310.70,114.00 301.47,82.71 282.83,62.00
             262.86,39.81 227.95,17.16 198.00,12.44
             198.00,12.44 188.00,11.91 188.00,11.91
             188.00,11.91 176.00,11.09 176.00,11.09
             176.00,11.09 124.00,11.09 124.00,11.09
             124.00,11.09 52.00,11.09 52.00,11.09
             52.00,11.09 39.00,12.53 39.00,12.53 Z
           M 175.00,40.00
           C 185.23,40.02 192.36,43.01 202.00,45.98
             209.12,48.16 216.24,50.11 223.00,53.32
             245.15,63.85 266.26,86.66 276.14,109.00
             280.82,119.59 284.86,135.41 285.00,147.00
             285.32,174.62 277.91,200.62 259.70,222.00
             259.70,222.00 232.92,250.00 232.92,250.00
             227.61,256.45 223.18,263.29 224.29,272.00
             225.86,284.37 236.71,302.19 243.20,313.00
             243.20,313.00 286.81,383.00 286.81,383.00
             291.97,391.42 304.78,409.05 306.00,418.00
             306.00,418.00 232.00,418.00 232.00,418.00
             232.00,418.00 217.00,419.00 217.00,419.00
             217.00,419.00 95.00,419.00 95.00,419.00
             95.00,419.00 80.00,420.00 80.00,420.00
             80.00,420.00 50.00,420.00 50.00,420.00
             50.00,420.00 49.00,404.00 49.00,404.00
             49.00,404.00 49.00,228.00 49.00,228.00
             49.00,228.00 49.00,130.00 49.00,130.00
             49.00,130.00 50.00,115.00 50.00,115.00
             50.00,115.00 50.00,40.00 50.00,40.00
             50.00,40.00 175.00,40.00 175.00,40.00 Z
           M 335.95,272.00
           C 335.95,272.00 387.20,409.00 387.20,409.00
             392.51,422.27 400.60,441.27 402.57,455.00
             403.33,460.26 403.87,470.72 396.96,471.85
             384.97,473.82 381.65,465.47 376.00,457.00
             376.00,457.00 341.31,403.00 341.31,403.00
             341.31,403.00 281.40,308.00 281.40,308.00
             281.40,308.00 266.72,284.00 266.72,284.00
             264.92,280.83 262.00,276.78 262.49,273.00
             263.01,269.06 267.69,263.96 270.29,261.00
             270.29,261.00 293.00,236.00 293.00,236.00
             293.00,236.00 308.53,213.14 308.53,213.14
             310.22,211.25 310.85,211.07 313.00,210.00
             313.00,210.00 335.95,272.00 335.95,272.00 Z
           M 79.95,310.84
           C 74.97,308.13 64.82,309.00 59.00,309.00
             59.00,309.00 59.00,344.00 59.00,344.00
             59.00,344.00 67.00,344.00 67.00,344.00
             67.00,344.00 67.00,332.00 67.00,332.00
             74.27,334.35 73.41,340.03 78.32,342.98
             80.61,344.35 85.30,344.00 88.00,344.00
             88.00,344.00 79.95,330.00 79.95,330.00
             87.58,325.42 87.66,315.08 79.95,310.84 Z
           M 69.31,316.77
           C 71.82,315.92 77.50,318.19 75.83,321.72
             74.54,324.46 69.60,324.78 67.00,325.00
             67.01,322.59 66.46,317.74 69.31,316.77 Z
           M 113.26,324.00
           C 110.58,317.08 100.91,314.89 95.04,318.74
             86.64,324.25 86.82,339.15 96.00,343.83
             98.62,345.15 102.12,345.05 105.00,344.99
             108.46,344.90 109.68,344.59 113.00,344.00
             113.00,344.00 112.00,337.00 112.00,337.00
             104.48,338.97 102.17,339.34 97.00,333.00
             97.00,333.00 114.00,333.00 114.00,333.00
             114.00,330.38 114.19,326.40 113.26,324.00 Z
           M 122.21,319.65
           C 116.71,324.13 116.29,335.92 122.21,340.26
             125.25,342.49 130.35,342.00 134.00,342.00
             130.52,348.30 125.94,346.11 120.00,345.00
             120.00,345.00 119.00,352.00 119.00,352.00
             124.71,353.02 133.99,354.36 138.77,350.35
             144.69,345.40 143.00,325.68 143.00,318.00
             137.10,316.94 127.17,315.61 122.21,319.65 Z
           M 106.00,328.00
           C 106.00,328.00 97.00,328.00 97.00,328.00
             99.95,323.15 103.85,321.54 106.00,328.00 Z
           M 133.91,328.00
           C 133.91,328.00 133.91,331.89 133.91,331.89
             132.45,340.41 121.72,330.73 128.51,324.85
             129.87,323.67 131.36,323.44 133.00,323.00
             133.57,325.00 133.84,325.88 133.91,328.00 Z
           M 187.99,363.74
           C 186.48,365.61 187.00,374.29 187.00,377.00
             187.00,383.13 185.25,397.45 191.13,400.83
             193.39,402.13 196.47,401.97 199.00,402.00
             199.00,402.00 195.11,389.99 195.11,389.99
             195.11,389.99 195.11,362.00 195.11,362.00
             192.83,362.06 189.51,361.86 187.99,363.74 Z
           M 56.00,366.00
           C 56.00,366.00 56.00,373.00 56.00,373.00
             56.00,373.00 66.00,373.00 66.00,373.00
             66.00,373.00 66.00,401.00 66.00,401.00
             66.00,401.00 75.00,401.00 75.00,401.00
             75.00,401.00 75.00,373.00 75.00,373.00
             75.00,373.00 85.00,373.00 85.00,373.00
             85.00,373.00 85.00,366.00 85.00,366.00
             85.00,366.00 56.00,366.00 56.00,366.00 Z
           M 232.99,368.74
           C 231.93,370.05 232.03,372.41 232.00,374.00
             231.90,380.27 230.38,396.09 235.39,400.11
             238.24,402.39 250.32,403.81 249.42,398.08
             248.80,394.05 244.24,396.16 241.74,393.48
             239.42,391.00 240.00,384.33 240.00,381.00
             240.00,381.00 249.00,381.00 249.00,381.00
             249.00,381.00 249.00,375.00 249.00,375.00
             249.00,375.00 240.00,375.00 240.00,375.00
             240.00,375.00 240.00,367.00 240.00,367.00
             237.83,367.06 234.51,366.86 232.99,368.74 Z
           M 108.26,381.00
           C 105.58,374.08 95.91,371.89 90.04,375.74
             81.64,381.25 81.82,396.15 91.00,400.83
             93.62,402.15 97.12,402.05 100.00,401.99
             103.46,401.90 104.68,401.59 108.00,401.00
             108.00,401.00 107.00,394.00 107.00,394.00
             99.48,395.97 97.17,396.34 92.00,390.00
             92.00,390.00 109.00,390.00 109.00,390.00
             109.00,387.38 109.19,383.40 108.26,381.00 Z
           M 149.26,378.06
           C 144.88,371.58 137.59,374.82 133.00,374.82
             133.00,374.82 128.00,374.19 128.00,374.19
             122.95,373.64 118.94,374.12 114.00,375.00
             114.00,375.00 114.00,401.00 114.00,401.00
             114.00,401.00 122.00,401.00 122.00,401.00
             122.00,401.00 122.00,388.00 122.00,388.00
             122.04,386.23 121.90,382.24 124.26,381.77
             126.54,381.32 127.78,384.32 128.28,386.01
             129.29,389.44 129.00,397.12 129.00,401.00
             129.00,401.00 137.00,401.00 137.00,401.00
             137.00,401.00 136.00,381.00 136.00,381.00
             137.72,380.95 139.29,380.68 140.74,381.89
             144.06,384.68 143.00,396.64 143.00,401.00
             143.00,401.00 151.00,401.00 151.00,401.00
             151.00,395.67 151.99,382.09 149.26,378.06 Z
           M 176.95,400.26
           C 183.45,395.92 183.78,382.84 178.47,377.53
             173.31,372.37 163.55,373.83 157.00,375.00
             157.00,375.00 157.00,410.00 157.00,410.00
             157.00,410.00 165.00,410.00 165.00,410.00
             165.00,410.00 165.00,401.00 165.00,401.00
             168.94,402.12 173.32,402.69 176.95,400.26 Z
           M 214.00,385.00
           C 208.08,385.08 201.15,387.54 202.66,395.00
             204.21,402.62 212.03,402.08 218.00,402.00
             219.89,401.97 222.88,402.04 224.43,400.83
             226.41,399.26 226.00,395.30 226.00,393.00
             226.01,387.19 226.93,378.43 220.94,375.17
             218.18,373.67 203.02,372.14 205.66,378.70
             206.82,381.61 210.63,380.42 212.96,380.85
             215.95,381.41 216.52,382.64 218.00,385.00
             218.00,385.00 214.00,385.00 214.00,385.00 Z
           M 276.26,381.00
           C 273.58,374.08 263.91,371.89 258.04,375.74
             249.64,381.25 249.82,396.15 259.00,400.83
             261.62,402.15 265.12,402.05 268.00,401.99
             271.46,401.90 272.68,401.59 276.00,401.00
             276.00,401.00 275.00,394.00 275.00,394.00
             267.48,395.97 265.17,396.34 260.00,390.00
             260.00,390.00 277.00,390.00 277.00,390.00
             277.00,387.38 277.19,383.40 276.26,381.00 Z
           M 101.00,385.00
           C 101.00,385.00 92.00,385.00 92.00,385.00
             94.95,380.15 98.85,378.54 101.00,385.00 Z
           M 165.05,387.00
           C 165.05,387.00 165.05,384.06 165.05,384.06
             165.76,380.46 168.61,379.50 171.35,381.83
             174.90,384.84 175.00,393.49 169.89,395.04
             168.32,395.58 166.59,395.19 165.05,395.04
             165.05,395.04 165.05,387.00 165.05,387.00 Z
           M 269.00,385.00
           C 269.00,385.00 260.00,385.00 260.00,385.00
             262.95,380.15 266.85,378.54 269.00,385.00 Z
           M 211.00,395.00
           C 211.00,395.00 211.00,391.00 211.00,391.00
             219.87,389.92 219.93,396.31 211.00,395.00 Z" />
 </g>
</svg>
